# xmcd
#
# Track frame offsets: 
#        150
#        17265
#        40475
#        60375
#        83860
#        105845
#        122720
#        141787
#        166057
#        182120
#        195745
#        216277
#        238670
#        264150
#
# Disc length: 3837 seconds
#
# Revision: 0
# Processed by: cddbd v1.5.2PL0 Copyright (c) Steve Scherf et al.
# Submitted via: ExactAudioCopy v1.3
#
DISCID=b20efb0e
DTITLE=KOKIA - Tokyo Mermaid 
DYEAR=2018
DGENRE=JPop
TTITLE0=お化けが怖いなんて
TTITLE1=Hello
TTITLE2=天気がいい ビール飲もう
TTITLE3=Aliens 〜宇宙人わかりました〜
TTITLE4=Nipponjin
TTITLE5=笑えない話
TTITLE6=ピエロの夢
TTITLE7=私の中の獣
TTITLE8=精霊の舞 〜Dance of the Spirit
TTITLE9=tori
TTITLE10=FURUSATO 〜故郷〜
TTITLE11=言葉の向こう側
TTITLE12=音のアルバム
TTITLE13=最後の眠り
EXTD=
EXTT0=
EXTT1=
EXTT2=
EXTT3=
EXTT4=
EXTT5=
EXTT6=
EXTT7=
EXTT8=
EXTT9=
EXTT10=
EXTT11=
EXTT12=
EXTT13=
PLAYORDER=
